<svg width="306" height="495" viewBox="0 0 306 495" fill="none" xmlns="http://www.w3.org/2000/svg">
<path d="M119.025 302.896V465.534C119.025 472.647 121.565 479.251 125.847 484.331C127.879 486.799 130.347 488.976 133.105 490.645C135.354 492.024 137.749 493.113 140.29 493.838C142.612 494.492 145.007 494.927 147.547 495C147.837 495 148.2 495 148.49 495C164.674 495 177.956 481.718 177.956 465.534V302.896C177.956 286.639 164.674 273.43 148.49 273.43C140.362 273.43 133.032 276.769 127.662 282.067C122.364 287.437 119.025 294.767 119.025 302.896Z" fill="#222433"/>
<g opacity="0.5">
<path opacity="0.5" d="M125.852 303.983V484.33C127.885 486.798 130.352 488.975 133.11 490.644V303.983H125.852Z" fill="url(#paint0_linear_2070_10)"/>
</g>
<path opacity="0.5" d="M140.287 303.984V493.838C142.61 494.491 145.005 494.926 147.545 494.999V303.984H140.287Z" fill="url(#paint1_linear_2070_10)"/>
<path d="M148.488 480.483C167.575 480.483 183.033 464.952 183.033 445.938C183.033 443.906 181.437 442.309 179.404 442.309C177.372 442.309 175.776 443.906 175.776 445.938C175.776 461.033 163.511 473.226 148.488 473.226C133.392 473.226 121.2 460.961 121.2 445.938C121.2 443.906 119.603 442.309 117.571 442.309C115.539 442.309 113.943 443.906 113.943 445.938C113.943 464.952 129.473 480.483 148.488 480.483Z" fill="#32535D"/>
<path d="M148.488 458.567C167.575 458.567 183.033 443.036 183.033 424.022C183.033 421.99 181.437 420.393 179.404 420.393C177.372 420.393 175.776 421.99 175.776 424.022C175.776 439.117 163.511 451.31 148.488 451.31C133.392 451.31 121.2 439.045 121.2 424.022C121.2 421.99 119.603 420.393 117.571 420.393C115.539 420.393 113.943 421.99 113.943 424.022C113.943 443.036 129.473 458.567 148.488 458.567Z" fill="#32535D"/>
<path d="M119.026 322.925C191.164 322.925 293.567 250.206 303.945 161.81C314.758 69.9314 248.788 0.623047 176.214 0.623047V133.942C176.214 162.318 170.989 190.477 160.611 216.894L119.026 322.925Z" fill="#222433"/>
<path d="M248.207 234.749C245.522 240.772 240.95 245.417 235.434 248.102C233.765 242.224 234.055 235.692 236.741 229.668C239.426 223.645 243.998 219 249.514 216.315C251.183 222.193 250.82 228.652 248.207 234.749Z" fill="url(#paint2_linear_2070_10)"/>
<path d="M213.588 234.749C210.903 240.772 206.331 245.417 200.815 248.102C199.146 242.224 199.436 235.692 202.122 229.668C204.807 223.645 209.379 219 214.895 216.315C216.564 222.193 216.274 228.652 213.588 234.749Z" fill="url(#paint3_linear_2070_10)"/>
<path d="M223.603 256.522C220.917 262.545 216.345 267.19 210.829 269.875C209.16 263.997 209.451 257.465 212.136 251.442C214.821 245.418 219.393 240.773 224.909 238.088C226.578 243.966 226.288 250.426 223.603 256.522Z" fill="url(#paint4_linear_2070_10)"/>
<path d="M106.031 256.518C106.031 260.074 106.103 263.63 106.394 267.186C106.902 275.532 107.99 283.878 109.66 292.152C109.95 293.531 110.24 294.91 110.53 296.289C111.111 298.756 119.239 322.706 119.022 322.923C148.269 300.353 170.622 268.347 180.855 229.883C181.436 227.633 182.016 225.384 182.524 223.061C184.701 213.554 186.153 203.684 186.806 193.596C188.548 168.34 185.427 142.213 176.21 119.715C173.96 121.457 171.711 123.272 169.461 125.159C143.189 147.149 121.417 175.888 111.909 211.377C109.732 219.505 108.136 227.778 107.192 236.125C106.394 242.947 106.031 249.696 106.031 256.518Z" fill="#25386D"/>
<path d="M106.031 256.518C106.031 260.074 106.103 263.63 106.394 267.186C106.902 275.532 107.99 283.878 109.66 292.152C109.95 293.531 110.24 294.91 110.53 296.289C111.111 298.756 119.239 322.706 119.022 322.923C148.269 300.353 170.622 268.347 180.855 229.883C181.436 227.633 182.016 225.384 182.524 223.061C184.701 213.554 186.153 203.684 186.806 193.596C188.548 168.34 185.427 142.213 176.21 119.715C173.96 121.457 171.711 123.272 169.461 125.159C143.189 147.149 121.417 175.888 111.909 211.377C109.732 219.505 108.136 227.778 107.192 236.125C106.394 242.947 106.031 249.696 106.031 256.518Z" fill="#222433" fill-opacity="0.3"/>
<path d="M107.193 236.127C134.481 213.774 155.31 182.93 165.107 146.207C165.688 143.957 166.269 141.708 166.777 139.385C167.865 134.74 168.736 129.951 169.462 125.088C143.19 147.078 121.418 175.817 111.911 211.306C109.733 219.507 108.137 227.781 107.193 236.127Z" fill="url(#paint5_linear_2070_10)"/>
<path d="M285.729 128.717C285.729 161.085 261.198 187.284 230.935 187.284C200.672 187.284 176.141 161.085 176.141 128.717V11.5096C237.176 11.5096 285.729 63.9808 285.729 128.717Z" fill="#F26C74"/>
<path d="M176.212 11.5096V100.486C176.212 125.088 193.121 144.974 214.023 144.974C234.924 144.974 251.834 125.016 251.834 100.486C251.834 52.9495 220.482 14.1223 180.421 11.5822C178.969 11.5822 177.591 11.5096 176.212 11.5096Z" fill="#F8EA8C"/>
<path d="M199.075 61.7307C188.774 61.7307 180.424 53.3801 180.424 43.0791C180.424 32.7781 188.774 24.4276 199.075 24.4276C209.376 24.4276 217.727 32.7781 217.727 43.0791C217.727 53.3801 209.376 61.7307 199.075 61.7307Z" fill="#43A3A8"/>
<path d="M199.076 52.8056C193.705 52.8056 189.351 48.4516 189.351 43.0807C189.351 37.7098 193.705 33.3557 199.076 33.3557C204.447 33.3557 208.801 37.7098 208.801 43.0807C208.801 48.4516 204.447 52.8056 199.076 52.8056Z" fill="url(#paint6_linear_2070_10)"/>
<path d="M11.9794 45.9094C25.6959 46.8528 36.582 57.9567 37.2352 71.6732C48.4116 68.1897 60.2412 66.3753 72.5063 66.3753H176.215V0.623047H90.2144C79.9814 0.623047 70.1113 2.29225 60.967 5.48552C40.2108 12.5978 22.7929 27.1126 11.9794 45.9094Z" fill="#F8EA8C"/>
<path d="M30.6309 90.8328H176.215V66.3752H72.5788C60.3138 66.3752 48.4842 68.1896 37.3078 71.6732C37.3078 72.1086 37.3078 72.5441 37.3078 73.0521C37.3078 79.8015 34.7677 86.1154 30.6309 90.8328Z" fill="#F26A6C"/>
<path d="M157.052 0.623047H176.212V66.3753H157.052V0.623047Z" fill="url(#paint7_linear_2070_10)"/>
<path d="M157.052 66.3752H176.212V90.9053H157.052V66.3752Z" fill="black"/>
<path d="M0.00477982 90.8335C11.0361 82.4149 23.664 75.8106 37.2354 71.6013C36.5822 57.8122 25.6961 46.7809 11.9795 45.8375C4.35923 59.1185 0.00477982 74.5043 0.00477982 90.8335Z" fill="#25316D"/>
<path d="M0.00477982 90.8342H30.5585C33.6066 87.3507 35.7839 83.0688 36.7273 78.3515C37.0902 76.6097 37.2354 74.8679 37.2354 72.981C37.2354 72.5455 37.2354 72.1101 37.2354 71.6021C23.664 75.8839 11.1086 82.4156 0.00477982 90.8342Z" fill="#222433"/>
<path opacity="0.7" d="M122.435 66.3753H157.053V0.623047H118.299C120.113 8.17077 121.782 16.8071 122.726 26.3869C124.25 41.7726 123.669 55.344 122.435 66.3753Z" fill="url(#paint8_linear_2070_10)"/>
<mask id="mask0_2070_10" style="mask-type:alpha" maskUnits="userSpaceOnUse" x="191" y="36" width="13" height="13">
<path d="M197.841 48.2334C194.514 48.2334 191.817 45.5365 191.817 42.2098C191.817 38.883 194.514 36.1861 197.841 36.1861C201.168 36.1861 203.865 38.883 203.865 42.2098C203.865 45.5365 201.168 48.2334 197.841 48.2334Z" fill="url(#paint9_linear_2070_10)"/>
</mask>
<g mask="url(#mask0_2070_10)">
<path d="M197.84 48.2313C194.513 48.2313 191.816 45.5344 191.816 42.2076C191.816 38.8808 194.513 36.184 197.84 36.184C201.166 36.184 203.863 38.8808 203.863 42.2076C203.863 45.5344 201.166 48.2313 197.84 48.2313Z" fill="url(#paint10_linear_2070_10)"/>
</g>
<defs>
<linearGradient id="paint0_linear_2070_10" x1="129.467" y1="485.917" x2="129.467" y2="324.218" gradientUnits="userSpaceOnUse">
<stop stop-color="#24C667"/>
<stop offset="1" stop-color="#244C6B"/>
</linearGradient>
<linearGradient id="paint1_linear_2070_10" x1="143.916" y1="531.15" x2="143.916" y2="350.93" gradientUnits="userSpaceOnUse">
<stop stop-color="#24C667"/>
<stop offset="1" stop-color="#244C6B"/>
</linearGradient>
<linearGradient id="paint2_linear_2070_10" x1="232.716" y1="254.123" x2="246.01" y2="224.104" gradientUnits="userSpaceOnUse">
<stop offset="0.5313" stop-color="#244C6B"/>
<stop offset="1" stop-color="#24236D"/>
</linearGradient>
<linearGradient id="paint3_linear_2070_10" x1="198.105" y1="254.123" x2="211.399" y2="224.104" gradientUnits="userSpaceOnUse">
<stop offset="0.5313" stop-color="#244C6B"/>
<stop offset="1" stop-color="#24236D"/>
</linearGradient>
<linearGradient id="paint4_linear_2070_10" x1="208.175" y1="275.879" x2="221.469" y2="245.861" gradientUnits="userSpaceOnUse">
<stop offset="0.5313" stop-color="#244C6B"/>
<stop offset="1" stop-color="#24236D"/>
</linearGradient>
<linearGradient id="paint5_linear_2070_10" x1="179.176" y1="94.3874" x2="122.568" y2="212.683" gradientUnits="userSpaceOnUse">
<stop stop-color="#7675FD"/>
<stop offset="1" stop-color="#244C6B"/>
</linearGradient>
<linearGradient id="paint6_linear_2070_10" x1="204.36" y1="50.1801" x2="193.353" y2="35.3023" gradientUnits="userSpaceOnUse">
<stop/>
<stop offset="1" stop-color="#24236D"/>
</linearGradient>
<linearGradient id="paint7_linear_2070_10" x1="166.621" y1="63.4239" x2="166.621" y2="3.90529" gradientUnits="userSpaceOnUse">
<stop stop-color="#24236D"/>
<stop offset="1" stop-color="#244C6B"/>
</linearGradient>
<linearGradient id="paint8_linear_2070_10" x1="137.647" y1="64.8754" x2="137.647" y2="9.0651" gradientUnits="userSpaceOnUse">
<stop stop-color="#EE2A7B"/>
<stop offset="1" stop-color="#F15665"/>
</linearGradient>
<linearGradient id="paint9_linear_2070_10" x1="199.614" y1="47.0066" x2="195.982" y2="37.3196" gradientUnits="userSpaceOnUse">
<stop offset="0.00386639"/>
<stop offset="0.9994" stop-color="white"/>
</linearGradient>
<linearGradient id="paint10_linear_2070_10" x1="199.613" y1="47.0044" x2="195.98" y2="37.3175" gradientUnits="userSpaceOnUse">
<stop offset="0.00386639"/>
<stop offset="0.9994" stop-color="#C6C6FF"/>
</linearGradient>
</defs>
</svg>
