<svg width="72" height="45" viewBox="0 0 72 45" fill="none" xmlns="http://www.w3.org/2000/svg">
<path d="M39.9938 44.351C40.9373 44.351 41.8808 43.9882 42.5339 43.2624C43.9854 41.8109 43.9854 39.5611 42.5339 38.1096L6.24683 1.82253C4.79534 0.371046 2.54554 0.371046 1.09405 1.82253C-0.357433 3.27402 -0.357433 5.52382 1.09405 6.97531L37.3812 43.2624C38.1069 43.9882 39.0504 44.351 39.9938 44.351Z" fill="#F2726C"/>
<path d="M39.9973 44.352C42.0294 44.352 43.626 42.7554 43.626 40.7233C43.626 35.1351 48.1256 30.6355 53.7138 30.6355C59.3021 30.6355 63.8017 35.1351 63.8017 40.7233C63.8017 42.7554 65.3983 44.352 67.4304 44.352C69.4624 44.352 71.0591 42.7554 71.0591 40.7233C71.0591 31.1435 63.2936 23.378 53.7138 23.378C44.134 23.378 36.3686 31.1435 36.3686 40.7233C36.3686 42.7554 37.9652 44.352 39.9973 44.352Z" fill="#F2726C"/>
</svg>
